<?xml version="1.0" encoding="utf-8"?>
<!-- Generator: Adobe Illustrator 26.1.0, SVG Export Plug-In . SVG Version: 6.00 Build 0)  -->
<svg version="1.1" id="Layer_1" xmlns="http://www.w3.org/2000/svg" xmlns:xlink="http://www.w3.org/1999/xlink" x="0px" y="0px"
	 viewBox="0 0 270 90" style="enable-background:new 0 0 270 90;" xml:space="preserve">
<style type="text/css">
	.st0{fill:#003157;}
	.st1{fill:url(#SVGID_1_);}
	.st2{fill:#FFFFFF;}
</style>
<path class="st0" d="M27,62.1h-0.2c-0.6,0.6-1.3,1.2-2.1,1.9c-0.8,0.6-1.8,1.3-2.8,1.8c-1.1,0.6-2.2,1-3.5,1.4
	c-1.3,0.4-2.7,0.5-4.2,0.5c-2,0-3.9-0.3-5.7-0.9C6.8,66.1,5.3,65.2,4,64c-1.3-1.2-2.2-2.6-3-4.3C0.4,58,0,56.2,0,54.1
	c0-2.3,0.4-4.3,1.3-6.2s2-3.4,3.5-4.6c1.5-1.3,3.3-2.2,5.4-2.9c2.1-0.7,4.4-1,6.9-1c1.8,0,3.5,0.1,5.1,0.4c1.6,0.2,2.9,0.5,4.1,0.8
	v-1.7c0-1-0.2-2-0.5-2.9c-0.3-0.9-0.9-1.7-1.6-2.5c-0.7-0.7-1.7-1.3-2.9-1.7c-1.2-0.4-2.7-0.6-4.4-0.6c-2.1,0-4.2,0.2-6.3,0.7
	S6,33.1,3.6,34v-8.1c2.1-0.9,4.4-1.7,6.8-2.2c2.4-0.5,4.9-0.8,7.6-0.8c3.1,0,5.8,0.4,8.2,1.1s4.3,1.8,5.8,3.1
	c1.6,1.3,2.7,2.9,3.5,4.7c0.8,1.8,1.2,3.8,1.2,5.9v16c0,2.8,0,5.2,0.1,7.3c0.1,2,0.1,3.8,0.2,5.4h-9.4L27,62.1z M26.2,48.5
	c-1-0.2-2.1-0.4-3.4-0.6c-1.3-0.2-2.6-0.3-3.9-0.3c-2.5,0-4.6,0.5-6,1.5c-1.5,1-2.2,2.6-2.2,4.6c0,1,0.2,1.8,0.5,2.5
	c0.3,0.7,0.8,1.3,1.4,1.8c0.6,0.5,1.2,0.8,2,1.1c0.8,0.2,1.6,0.4,2.4,0.4c1.1,0,2-0.1,3-0.4c0.9-0.3,1.8-0.6,2.6-1.1
	c0.8-0.4,1.5-0.9,2.1-1.4s1.2-1,1.6-1.5V48.5z"/>
<path class="st0" d="M68.7,66.6c-1.2,0.4-2.6,0.6-4.2,0.8c-1.6,0.2-3.1,0.3-4.5,0.3c-3.6,0-6.5-0.6-8.8-1.7c-2.3-1.2-3.9-2.8-4.8-5
	c-0.7-1.6-1-3.7-1-6.3V32.6h-6V24h6V12.1h10.4V24h12.3v8.6H55.8v20.7c0,1.6,0.2,2.9,0.7,3.6c0.9,1.3,2.6,2,5.2,2
	c1.2,0,2.4-0.1,3.6-0.3c1.2-0.2,2.3-0.4,3.4-0.7V66.6z"/>
<path class="st0" d="M112.8,45.3c0,3.3-0.5,6.4-1.5,9.1c-1,2.8-2.4,5.1-4.3,7.1s-4.1,3.5-6.7,4.5c-2.6,1.1-5.6,1.6-8.8,1.6
	c-3.3,0-6.3-0.5-9-1.6c-2.7-1.1-4.9-2.6-6.7-4.5s-3.3-4.3-4.2-7.1c-1-2.8-1.5-5.8-1.5-9.1s0.5-6.4,1.5-9.1c1-2.8,2.4-5.1,4.3-7.1
	s4.1-3.5,6.7-4.5c2.6-1.1,5.6-1.6,8.8-1.6c3.3,0,6.3,0.5,9,1.6c2.7,1.1,4.9,2.6,6.7,4.5s3.3,4.3,4.2,7.1
	C112.4,39,112.8,42,112.8,45.3z M102.1,45.3c0-2.3-0.3-4.2-0.8-6c-0.5-1.7-1.3-3.2-2.2-4.4c-0.9-1.2-2.1-2.1-3.4-2.6
	s-2.8-0.9-4.3-0.9c-1.5,0-2.9,0.3-4.2,0.9s-2.4,1.5-3.4,2.6c-0.9,1.2-1.7,2.6-2.2,4.4c-0.5,1.7-0.8,3.7-0.8,6c0,2.3,0.3,4.2,0.8,6
	c0.5,1.7,1.3,3.2,2.2,4.3c1,1.2,2.1,2,3.4,2.6c1.3,0.6,2.7,0.9,4.3,0.9c1.6,0,3-0.3,4.3-0.9c1.3-0.6,2.4-1.5,3.3-2.6
	c0.9-1.2,1.7-2.6,2.2-4.3C101.8,49.6,102.1,47.6,102.1,45.3z"/>
<path class="st0" d="M172.3,40.7c0-0.9,0-1.8-0.1-2.5c-0.1-0.8-0.2-1.5-0.3-2.1c-0.3-1.3-1-2.3-1.9-3.1c-0.9-0.8-2.3-1.2-4-1.2
	c-0.9,0-1.8,0.1-2.8,0.4s-1.9,0.6-2.9,1.1c-1,0.5-1.9,1.1-2.7,1.8c-0.9,0.7-1.6,1.5-2.4,2.3v29.3h-10.4V40.7c0-0.9,0-1.8-0.1-2.5
	c-0.1-0.8-0.2-1.5-0.3-2.1c-0.3-1.3-0.9-2.3-1.9-3.1s-2.2-1.2-4-1.2c-0.9,0-1.8,0.1-2.8,0.4s-1.9,0.6-2.9,1.1
	c-1,0.5-1.9,1.1-2.7,1.8c-0.9,0.7-1.6,1.5-2.4,2.3v29.3h-10.4V24h8.6l1,5.9h0.2c0.6-0.9,1.4-1.7,2.3-2.6c0.9-0.8,2-1.6,3.2-2.2
	c1.2-0.6,2.5-1.2,3.9-1.6c1.4-0.4,2.9-0.6,4.5-0.6c2.8,0,5.3,0.6,7.6,1.9c2.2,1.2,3.9,3.2,5.1,5.8h0.2c0.8-1.1,1.7-2.2,2.7-3.1
	s2.1-1.7,3.4-2.4c1.2-0.7,2.6-1.2,4-1.6c1.4-0.4,2.9-0.6,4.5-0.6c3,0,5.6,0.7,7.7,1.9c2.1,1.2,3.7,3,4.8,5.1
	c0.3,0.6,0.5,1.2,0.7,1.8c0.2,0.7,0.4,1.4,0.5,2.2s0.2,1.7,0.3,2.7c0.1,1,0.1,2.1,0.1,3.4v26.4h-10.4V40.7z"/>
<linearGradient id="SVGID_1_" gradientUnits="userSpaceOnUse" x1="230" y1="90" x2="230" y2="-1.818989e-12">
	<stop  offset="0" style="stop-color:#0070FF"/>
	<stop  offset="5.949146e-02" style="stop-color:#0073FF"/>
	<stop  offset="0.6514" style="stop-color:#008EFF"/>
	<stop  offset="1" style="stop-color:#0098FF"/>
</linearGradient>
<path class="st1" d="M266.5,70.1l-33.1,19c-2.1,1.2-4.7,1.2-6.8,0l-33.1-19c-2.2-1.2-3.5-3.5-3.5-6V25.9c0-2.5,1.3-4.8,3.5-6
	l33.1-19c2.1-1.2,4.7-1.2,6.8,0l33.1,19c2.2,1.2,3.5,3.5,3.5,6v38.2C270,66.6,268.7,68.9,266.5,70.1z"/>
<g>
	<g>
		<path class="st2" d="M235.2,54.2c0-0.9-0.3-1.7-0.8-2.2c-0.5-0.6-1.2-1.1-2.1-1.4c-0.9-0.4-1.8-0.7-2.9-1
			c-1.1-0.3-2.3-0.6-3.5-0.8c-1.5-0.4-3-0.8-4.4-1.4c-1.4-0.5-2.7-1.2-3.7-2.1c-1.1-0.9-1.9-2-2.6-3.3c-0.6-1.3-1-3-1-4.9
			c0-2.4,0.4-4.4,1.2-6.2c0.8-1.8,2-3.2,3.4-4.4c1.4-1.2,3.1-2,5-2.6c1.9-0.6,3.9-0.9,6.1-0.9c2.6,0,5.1,0.1,7.3,0.5
			c2.3,0.4,4.4,0.9,6.2,1.6l0.1,8.5c-1-0.3-2-0.6-3.1-0.9c-1.1-0.3-2.2-0.5-3.3-0.7c-1.1-0.2-2.2-0.3-3.3-0.5
			c-1.1-0.1-2.1-0.2-3.1-0.2c-1.2,0-2.3,0.1-3.1,0.4c-0.8,0.2-1.5,0.6-2.1,1c-0.5,0.4-0.9,0.9-1.1,1.4c-0.2,0.5-0.3,1.1-0.3,1.6
			c0,1,0.3,1.8,0.8,2.4s1.2,1.1,2.2,1.5c0.9,0.4,1.9,0.7,2.9,0.9c1,0.2,2,0.5,2.9,0.7c1.5,0.3,2.9,0.7,4.4,1.2c1.5,0.5,2.8,1.2,4,2
			c1.2,0.9,2.2,2,2.9,3.4c0.8,1.4,1.2,3.2,1.2,5.4c0,2.4-0.4,4.5-1.3,6.3c-0.9,1.8-2.1,3.3-3.7,4.5c-1.6,1.2-3.5,2.1-5.8,2.7
			c-2.3,0.6-4.8,0.9-7.5,1c-2.7,0-5.1-0.1-7.3-0.5c-2.2-0.4-3.9-0.9-5.4-1.5l-0.1-8.4c2.3,0.8,4.4,1.4,6.4,1.6
			c1.9,0.3,3.7,0.4,5.4,0.4c1.3,0,2.5-0.1,3.6-0.3c1.1-0.2,2.1-0.5,2.9-0.9c0.8-0.4,1.4-1,1.9-1.6C235,55.8,235.2,55,235.2,54.2z"/>
	</g>
</g>
</svg>
